<svg xmlns="http://www.w3.org/2000/svg" viewBox="0 0 24 24" width="24" height="24">
<path d="M 19.35 10 C 18.67 6.55 15.64 3.96 12 3.96 C 9.11 3.96 6.6 5.6 5.35 8 C 2.34 8.32 0 10.87 0 13.96 C 0 17.27 2.69 19.96 6 19.96 L 19 19.96 C 21.76 19.96 24 17.72 24 14.96 C 24 12.32 21.95 10.18 19.35 10 Z M 19 17.96 L 6 17.96 C 3.79 17.96 2 16.17 2 13.96 C 2 11.75 3.79 9.96 6 9.96 L 6.71 9.96 C 7.37 7.65 9.48 5.96 12 5.96 C 15.04 5.96 17.5 8.42 17.5 11.46 L 17.5 11.96 L 19 11.96 C 20.66 11.96 22 13.3 22 14.96 C 22 16.62 20.66 17.96 19 17.96 Z"></path>
<path d="M 17 13 L 12 8 L 7 13 L 10 13 L 10 17 L 14 17 L 14 13 L 17 13 Z"></path>
</svg>