
<svg xmlns="http://www.w3.org/2000/svg" viewBox="0 0 24 24" width="24" height="24">
<path d="M 58.157 6.665 L 58.157 3.495 L 64.157 3.495 L 64.157 9.495 L 68.157 9.495 L 64.567 13.085 L 58.157 6.665 Z"></path>
<path d="M 18.685 23.446 L 16.075 20.836 L 16.059 20.836 L 15.223 20 L 5.975 20 C 2.665 20 -0.025 17.31 -0.025 14 C -0.025 11.498 1.51 9.349 3.692 8.453 L 0.295 5.056 L 1.715 3.646 L 20.095 22.026 Z M 11.495 16.246 L 11.482 16.259 L 8.223 13 L 6.975 13 L 11.975 18 L 12.61 17.365 Z M 23.975 15 C 23.975 17.187 22.569 19.047 20.612 19.726 L 15.431 14.545 L 16.975 13 L 13.975 13 L 13.975 9 L 9.975 9 L 9.975 9.089 L 6.884 5.998 C 8.221 4.758 10.01 4 11.975 4 C 15.615 4 18.645 6.59 19.325 10.04 C 21.925 10.22 23.975 12.36 23.975 15 Z"></path>
</svg>