<svg viewBox="0 0 226 226" width="40px" height="40px" xmlns="http://www.w3.org/2000/svg" xmlns:bx="https://boxy-svg.com">
    <defs>
      <bx:guide x="385.417" y="101.425" angle="0"></bx:guide>
    </defs>
    <path d="M 223 113 C 223 173.752 173.752 223 113 223 C 52.248 223 3 173.752 3 113 C 3 52.248 52.248 3 113 3 C 173.752 3 223 52.248 223 113 Z M 50.082 61.913 L 88.71 188.263 C 89.45 190.678 90.732 192.957 92.383 194.963 C 93.288 199.657 97.145 202.864 102.792 202.864 L 121.062 202.864 C 126.71 202.864 130.631 199.657 131.623 194.963 C 133.313 192.957 134.639 190.678 135.424 188.263 L 176.524 61.771 C 179.271 53.316 174.644 46.461 166.189 46.461 L 154.809 46.461 C 146.085 46.461 136.712 53.535 133.877 62.259 L 112.65 127.592 L 92.633 62.118 C 89.989 53.471 80.836 46.461 72.189 46.461 L 60.811 46.461 C 52.277 46.461 47.474 53.38 50.082 61.913 Z" style=""></path>
  </svg>