<svg viewBox="0 0 24 24" xmlns="http://www.w3.org/2000/svg" width="24" height="24">
<path d="M 18.32 4.21 C 16.84 3 15.01 2.2 13 2 L 13 4.02 C 14.46 4.2 15.79 4.78 16.9 5.64 L 18.32 4.21 Z M 11 19.88 L 11 21.9 C 5.95 21.4 2 17.14 2 11.95 C 2 6.76 5.95 2.5 11 2 L 11 4.02 C 7.05 4.51 4 7.87 4 11.95 C 4 16.03 7.05 19.39 11 19.88 Z M 11 11.95 L 11 16.95 L 13 16.95 L 13 11.95 L 17 11.95 L 12 6.95 L 7 11.95 L 11 11.95 Z M 13 19.88 L 13 21.9 C 15.01 21.7 16.84 20.9 18.32 19.69 L 16.89 18.26 C 15.79 19.12 14.46 19.7 13 19.88 Z M 18.31 16.85 L 19.74 18.28 C 20.95 16.8 21.75 14.96 21.95 12.96 L 19.93 12.96 C 19.75 14.41 19.17 15.74 18.31 16.85 Z M 19.93 10.95 L 21.95 10.95 C 21.75 8.94 20.95 7.11 19.74 5.63 L 18.31 7.05 C 19.17 8.16 19.75 9.49 19.93 10.95 Z"></path>
</svg>